<svg xmlns="http://www.w3.org/2000/svg" xmlns:xlink="http://www.w3.org/1999/xlink" width="500" zoomAndPan="magnify" viewBox="0 0 375 374.999991" height="500" preserveAspectRatio="xMidYMid meet" version="1.0"><defs><filter x="0%" y="0%" width="100%" height="100%" id="f3cea41c8a"><feColorMatrix values="0 0 0 0 1 0 0 0 0 1 0 0 0 0 1 0 0 0 1 0" color-interpolation-filters="sRGB"/></filter><g/><mask id="446aae0777"><g filter="url(#f3cea41c8a)"><rect x="-37.5" width="450" fill="#000000" y="-37.499999" height="449.999989" fill-opacity="0.698"/></g></mask><clipPath id="aa4a5f578e"><rect x="0" width="181" y="0" height="207"/></clipPath></defs><g mask="url(#446aae0777)"><g transform="matrix(1, 0, 0, 1, 97, 84)"><g clip-path="url(#aa4a5f578e)"><g fill="#ff8210" fill-opacity="1"><g transform="translate(0.847312, 155.333964)"><g><path d="M 3.296875 0 L 3.296875 -1.5 L 6.453125 -2.703125 C 8.554688 -3.503906 9.882812 -4.476562 10.4375 -5.625 C 10.988281 -6.78125 11.265625 -8.359375 11.265625 -10.359375 L 11.265625 -88.75 C 11.265625 -90.75 10.960938 -92.347656 10.359375 -93.546875 C 9.753906 -94.753906 8.453125 -95.707031 6.453125 -96.40625 L 3.296875 -97.609375 L 3.296875 -99.109375 L 41.59375 -99.109375 L 41.59375 -97.609375 L 38.890625 -96.40625 C 36.992188 -95.707031 35.691406 -94.734375 34.984375 -93.484375 C 34.285156 -92.234375 33.9375 -90.601562 33.9375 -88.59375 L 33.9375 -3 L 57.0625 -3 C 60.769531 -3 63.5 -3.898438 65.25 -5.703125 C 67 -7.503906 68.675781 -10.109375 70.28125 -13.515625 L 76.140625 -26.125 L 77.640625 -26.125 L 76.28125 0 Z M 3.296875 0 "/></g></g></g><g fill="#ff8210" fill-opacity="1"><g transform="translate(81.935873, 155.333964)"><g><path d="M 3.296875 0 L 3.296875 -1.5 L 6.453125 -2.703125 C 8.453125 -3.398438 9.753906 -4.347656 10.359375 -5.546875 C 10.960938 -6.753906 11.265625 -8.3125 11.265625 -10.21875 L 11.265625 -88.75 C 11.265625 -90.75 10.960938 -92.347656 10.359375 -93.546875 C 9.753906 -94.753906 8.453125 -95.707031 6.453125 -96.40625 L 3.296875 -97.609375 L 3.296875 -99.109375 L 40.703125 -99.109375 L 40.703125 -97.609375 L 37.390625 -96.265625 C 35.691406 -95.660156 34.539062 -94.753906 33.9375 -93.546875 C 33.332031 -92.347656 33.03125 -90.695312 33.03125 -88.59375 L 33.03125 -10.0625 C 33.03125 -8.0625 33.351562 -6.507812 34 -5.40625 C 34.65625 -4.300781 35.9375 -3.398438 37.84375 -2.703125 L 40.703125 -1.5 L 40.703125 0 Z M 58.71875 0 L 58.71875 -1.5 L 60.671875 -2.109375 C 62.671875 -2.703125 63.71875 -3.695312 63.8125 -5.09375 C 63.914062 -6.5 63.316406 -8.101562 62.015625 -9.90625 L 33.1875 -50.90625 L 71.1875 -89.65625 C 72.582031 -91.050781 73.351562 -92.398438 73.5 -93.703125 C 73.65625 -95.003906 72.679688 -96.003906 70.578125 -96.703125 L 68.03125 -97.609375 L 68.03125 -99.109375 L 89.953125 -99.109375 L 89.953125 -97.609375 L 86.046875 -96.40625 C 83.847656 -95.707031 82.097656 -94.859375 80.796875 -93.859375 C 79.492188 -92.859375 77.988281 -91.503906 76.28125 -89.796875 L 49.40625 -62.328125 L 84.703125 -10.8125 C 86.203125 -8.613281 87.625 -6.8125 88.96875 -5.40625 C 90.320312 -4 92.253906 -2.898438 94.765625 -2.109375 L 96.859375 -1.5 L 96.859375 0 Z M 58.71875 0 "/></g></g></g></g></g></g><g fill="#232526" fill-opacity="1"><g transform="translate(64.268305, 210.569151)"><g><path d="M 6.515625 -5.828125 L 5.421875 -5.859375 C 4.328125 -5.890625 3.128906 -5.976562 1.828125 -6.125 C 1.804688 -6.125 1.785156 -6.140625 1.765625 -6.171875 C 1.734375 -6.171875 1.703125 -6.1875 1.671875 -6.21875 C 1.648438 -6.25 1.648438 -6.316406 1.671875 -6.421875 C 1.773438 -6.828125 1.921875 -7.039062 2.109375 -7.0625 C 3.160156 -7.207031 4.195312 -7.285156 5.21875 -7.296875 L 5.84375 -7.328125 L 9.96875 -7.328125 C 10.195312 -7.328125 10.421875 -7.3125 10.640625 -7.28125 C 10.796875 -7.226562 10.816406 -7 10.703125 -6.59375 C 10.578125 -6.175781 10.429688 -5.945312 10.265625 -5.90625 C 10.179688 -5.882812 10.097656 -5.875 10.015625 -5.875 L 9.375 -5.875 C 8.46875 -5.84375 7.515625 -5.828125 6.515625 -5.828125 Z M 6.515625 -5.828125 "/></g></g></g><g fill="#232526" fill-opacity="1"><g transform="translate(80.345738, 210.569151)"><g/></g></g><g fill="#232526" fill-opacity="1"><g transform="translate(94.588009, 210.569151)"><g><path d="M 53.046875 5.3125 C 53.066406 5.3125 53.097656 5.3125 53.140625 5.3125 C 53.273438 5.332031 53.40625 5.363281 53.53125 5.40625 C 53.664062 5.445312 53.785156 5.523438 53.890625 5.640625 C 53.921875 5.671875 53.945312 5.71875 53.96875 5.78125 C 53.988281 5.84375 53.988281 5.90625 53.96875 5.96875 C 53.945312 6.03125 53.910156 6.082031 53.859375 6.125 C 53.816406 6.175781 53.773438 6.203125 53.734375 6.203125 C 53.492188 6.234375 53.25 6.234375 53 6.203125 C 47.007812 4.960938 40.363281 4.160156 33.0625 3.796875 C 25.769531 3.429688 19.046875 3.5625 12.890625 4.1875 C 12.609375 4.207031 12.335938 4.238281 12.078125 4.28125 C 11.847656 4.300781 11.628906 4.320312 11.421875 4.34375 C 10.734375 4.4375 10.140625 4.738281 9.640625 5.25 C 8.535156 6.457031 7.316406 7.519531 5.984375 8.4375 C 4.941406 9.144531 3.789062 9.539062 2.53125 9.625 C 2.019531 9.65625 1.53125 9.570312 1.0625 9.375 C 0.613281 9.175781 0.320312 8.878906 0.1875 8.484375 C 0.0625 8.097656 0.117188 7.679688 0.359375 7.234375 C 0.753906 6.597656 1.398438 6.054688 2.296875 5.609375 C 3.203125 5.160156 4.164062 4.789062 5.1875 4.5 C 6.207031 4.21875 7.070312 4.007812 7.78125 3.875 C 8.726562 3.695312 9.5 3.234375 10.09375 2.484375 C 12.9375 -0.972656 15.671875 -4.890625 18.296875 -9.265625 C 20.929688 -13.648438 23.359375 -18.160156 25.578125 -22.796875 C 27.796875 -27.429688 29.707031 -31.875 31.3125 -36.125 C 31.363281 -36.34375 31.453125 -36.535156 31.578125 -36.703125 C 31.710938 -36.867188 31.90625 -36.984375 32.15625 -37.046875 C 32.394531 -37.078125 32.597656 -37.023438 32.765625 -36.890625 C 32.941406 -36.765625 33.015625 -36.585938 32.984375 -36.359375 C 32.898438 -35.804688 32.757812 -35.265625 32.5625 -34.734375 C 31.039062 -30.710938 29.234375 -26.519531 27.140625 -22.15625 C 25.046875 -17.789062 22.765625 -13.535156 20.296875 -9.390625 C 17.828125 -5.242188 15.285156 -1.492188 12.671875 1.859375 C 12.128906 2.546875 11.960938 2.945312 12.171875 3.0625 C 12.390625 3.175781 12.8125 3.171875 13.4375 3.046875 C 13.582031 3.023438 13.722656 3.003906 13.859375 2.984375 C 18.765625 2.429688 23.859375 2.265625 29.140625 2.484375 C 34.421875 2.703125 39.625 3.164062 44.75 3.875 C 46.550781 4.132812 48.316406 4.425781 50.046875 4.75 C 51.066406 4.945312 52.066406 5.132812 53.046875 5.3125 Z M 3.265625 8.34375 C 4.765625 7.738281 6.007812 6.78125 7 5.46875 C 5.375 5.582031 3.929688 6.082031 2.671875 6.96875 C 2.285156 7.257812 2.054688 7.539062 1.984375 7.8125 C 1.921875 8.09375 2.003906 8.296875 2.234375 8.421875 C 2.460938 8.546875 2.804688 8.519531 3.265625 8.34375 Z M 3.265625 8.34375 "/></g></g></g><g fill="#232526" fill-opacity="1"><g transform="translate(123.498149, 210.569151)"><g><path d="M 9.71875 -6.8125 C 9.925781 -6.695312 9.941406 -6.410156 9.765625 -5.953125 C 9.503906 -5.609375 9.226562 -5.289062 8.9375 -5 C 8.644531 -4.707031 8.320312 -4.441406 7.96875 -4.203125 C 7.945312 -4.203125 7.9375 -4.195312 7.9375 -4.1875 C 7.695312 -4.019531 7.445312 -3.878906 7.1875 -3.765625 C 5.0625 -2.992188 3.972656 -3.445312 3.921875 -5.125 C 3.054688 -4.375 2.476562 -3.910156 2.1875 -3.734375 C 1.476562 -3.316406 0.710938 -3.128906 -0.109375 -3.171875 C -0.710938 -3.210938 -1.125 -3.398438 -1.34375 -3.734375 C -1.5625 -4.066406 -1.539062 -4.519531 -1.28125 -5.09375 C -0.894531 -5.988281 -0.335938 -6.789062 0.390625 -7.5 C 1.234375 -8.289062 2.175781 -8.921875 3.21875 -9.390625 C 3.769531 -9.671875 4.347656 -9.78125 4.953125 -9.71875 C 5.566406 -9.675781 5.9375 -9.332031 6.0625 -8.6875 C 6.113281 -8.488281 6.0625 -8.3125 5.90625 -8.15625 C 5.707031 -7.976562 5.476562 -7.9375 5.21875 -8.03125 C 5.207031 -8.03125 5.1875 -8.035156 5.15625 -8.046875 C 5.125 -8.054688 5.097656 -8.070312 5.078125 -8.09375 C 4.816406 -8.445312 4.554688 -8.59375 4.296875 -8.53125 C 4.035156 -8.476562 3.753906 -8.363281 3.453125 -8.1875 C 2.078125 -7.382812 1.054688 -6.265625 0.390625 -4.828125 C 0.347656 -4.765625 0.320312 -4.691406 0.3125 -4.609375 C 0.3125 -4.535156 0.335938 -4.476562 0.390625 -4.4375 C 0.546875 -4.382812 0.722656 -4.394531 0.921875 -4.46875 C 1.117188 -4.539062 1.316406 -4.648438 1.515625 -4.796875 C 1.710938 -4.953125 1.878906 -5.078125 2.015625 -5.171875 C 2.023438 -5.203125 2.03125 -5.21875 2.03125 -5.21875 C 2.6875 -5.757812 3.328125 -6.316406 3.953125 -6.890625 C 4.234375 -7.179688 4.578125 -7.34375 4.984375 -7.375 C 5.578125 -7.375 5.820312 -7.113281 5.71875 -6.59375 C 5.664062 -6.394531 5.609375 -6.195312 5.546875 -6 C 5.316406 -5.15625 5.304688 -4.65625 5.515625 -4.5 C 5.734375 -4.351562 6.0625 -4.351562 6.5 -4.5 C 6.945312 -4.65625 7.390625 -4.9375 7.828125 -5.34375 C 8.273438 -5.757812 8.648438 -6.140625 8.953125 -6.484375 C 9.253906 -6.828125 9.507812 -6.9375 9.71875 -6.8125 Z M 9.71875 -6.8125 "/></g></g></g><g fill="#232526" fill-opacity="1"><g transform="translate(136.494659, 210.569151)"><g><path d="M 10.515625 -6.984375 C 10.628906 -6.753906 10.4375 -6.40625 9.9375 -5.9375 C 9.4375 -5.46875 8.554688 -4.898438 7.296875 -4.234375 C 6.828125 -4.035156 6.484375 -3.878906 6.265625 -3.765625 C 6.054688 -3.648438 5.898438 -3.5 5.796875 -3.3125 C 5.703125 -3.132812 5.597656 -2.859375 5.484375 -2.484375 C 5.378906 -2.210938 5.25 -1.84375 5.09375 -1.375 C 4.875 -0.800781 4.660156 -0.210938 4.453125 0.390625 C 4.054688 1.628906 3.585938 2.851562 3.046875 4.0625 C 2.503906 5.269531 1.804688 6.328125 0.953125 7.234375 C 0.0976562 8.140625 -1.003906 8.738281 -2.359375 9.03125 C -3.710938 9.289062 -5.023438 9.328125 -6.296875 9.140625 C -7.566406 8.960938 -8.804688 8.613281 -10.015625 8.09375 C -10.515625 7.863281 -10.957031 7.566406 -11.34375 7.203125 C -12 6.535156 -12.050781 5.785156 -11.5 4.953125 C -11.195312 4.546875 -10.851562 4.175781 -10.46875 3.84375 C -9.675781 3.207031 -8.851562 2.628906 -8 2.109375 C -6.394531 1.140625 -4.757812 0.253906 -3.09375 -0.546875 C -1.425781 -1.347656 0.257812 -2.125 1.96875 -2.875 C 2.082031 -2.925781 2.210938 -2.984375 2.359375 -3.046875 C 2.816406 -3.265625 3.296875 -3.484375 3.796875 -3.703125 C 4.128906 -3.828125 4.351562 -4.050781 4.46875 -4.375 C 4.507812 -4.5 4.519531 -4.609375 4.5 -4.703125 C 4.476562 -4.765625 4.441406 -4.800781 4.390625 -4.8125 C 4.347656 -4.820312 4.296875 -4.804688 4.234375 -4.765625 C 4.066406 -4.671875 3.894531 -4.5625 3.71875 -4.4375 C 3.613281 -4.382812 3.503906 -4.316406 3.390625 -4.234375 C 2.773438 -3.878906 2.132812 -3.722656 1.46875 -3.765625 C 0.425781 -3.765625 -0.101562 -4.234375 -0.125 -5.171875 C -0.132812 -5.941406 0 -6.671875 0.28125 -7.359375 C 0.5625 -8.046875 0.957031 -8.691406 1.46875 -9.296875 C 1.519531 -9.359375 1.59375 -9.410156 1.6875 -9.453125 C 1.789062 -9.492188 1.894531 -9.519531 2 -9.53125 C 2.007812 -9.53125 2.03125 -9.539062 2.0625 -9.5625 C 2.257812 -9.582031 2.410156 -9.535156 2.515625 -9.421875 C 2.617188 -9.304688 2.640625 -9.15625 2.578125 -8.96875 C 2.460938 -8.71875 2.347656 -8.46875 2.234375 -8.21875 C 2.140625 -8.019531 2.039062 -7.820312 1.9375 -7.625 C 1.550781 -6.851562 1.375 -6.050781 1.40625 -5.21875 C 1.425781 -5.03125 1.503906 -4.894531 1.640625 -4.8125 C 1.773438 -4.738281 1.929688 -4.742188 2.109375 -4.828125 C 2.640625 -5.035156 3.101562 -5.335938 3.5 -5.734375 C 4.5625 -6.703125 5.4375 -7.8125 6.125 -9.0625 C 6.21875 -9.25 6.328125 -9.40625 6.453125 -9.53125 C 6.585938 -9.65625 6.765625 -9.722656 6.984375 -9.734375 C 7.253906 -9.765625 7.460938 -9.707031 7.609375 -9.5625 C 7.765625 -9.414062 7.8125 -9.21875 7.75 -8.96875 C 7.5 -8.164062 7.234375 -7.375 6.953125 -6.59375 C 6.929688 -6.53125 6.910156 -6.472656 6.890625 -6.421875 C 6.816406 -6.242188 6.75 -6.054688 6.6875 -5.859375 C 6.625 -5.660156 6.59375 -5.488281 6.59375 -5.34375 C 6.59375 -5.195312 6.65625 -5.125 6.78125 -5.125 C 7.269531 -5.21875 7.984375 -5.609375 8.921875 -6.296875 C 9.867188 -6.984375 10.398438 -7.210938 10.515625 -6.984375 Z M 3.5 -1.609375 C 3.5 -1.648438 3.507812 -1.691406 3.53125 -1.734375 C 3.59375 -1.828125 3.625 -1.929688 3.625 -2.046875 C 3.632812 -2.160156 3.601562 -2.28125 3.53125 -2.40625 C 3.46875 -2.40625 3.421875 -2.40625 3.390625 -2.40625 C 3.265625 -2.382812 3.148438 -2.351562 3.046875 -2.3125 C 2.859375 -2.238281 2.664062 -2.148438 2.46875 -2.046875 C 0.894531 -1.328125 -0.675781 -0.582031 -2.25 0.1875 C -3.820312 0.957031 -5.363281 1.773438 -6.875 2.640625 C -7.789062 3.171875 -8.65625 3.785156 -9.46875 4.484375 C -10.132812 5.078125 -10.453125 5.59375 -10.421875 6.03125 C -10.398438 6.476562 -10.007812 6.878906 -9.25 7.234375 C -7.550781 8.117188 -5.71875 8.476562 -3.75 8.3125 C -2.40625 8.1875 -1.316406 7.6875 -0.484375 6.8125 C 0.347656 5.9375 1.03125 4.882812 1.5625 3.65625 C 2.09375 2.4375 2.554688 1.222656 2.953125 0.015625 C 3.117188 -0.554688 3.300781 -1.097656 3.5 -1.609375 Z M 3.5 -1.609375 "/></g></g></g><g fill="#232526" fill-opacity="1"><g transform="translate(150.361859, 210.569151)"><g><path d="M 6.484375 -6.390625 C 6.773438 -6.679688 7.019531 -6.84375 7.21875 -6.875 C 7.414062 -6.914062 7.539062 -6.882812 7.59375 -6.78125 C 7.65625 -6.6875 7.617188 -6.554688 7.484375 -6.390625 C 6.703125 -5.441406 5.820312 -4.625 4.84375 -3.9375 C 3.875 -3.25 2.875 -2.847656 1.84375 -2.734375 C 0.8125 -2.628906 0.1875 -3.195312 -0.03125 -4.4375 C -0.1875 -5.65625 0.550781 -8.144531 2.1875 -11.90625 C 3.832031 -15.664062 5.132812 -18.75 6.09375 -21.15625 C 6.175781 -21.363281 6.296875 -21.550781 6.453125 -21.71875 C 6.671875 -21.925781 6.925781 -21.972656 7.21875 -21.859375 C 7.320312 -21.816406 7.421875 -21.742188 7.515625 -21.640625 C 7.609375 -21.546875 7.640625 -21.375 7.609375 -21.125 C 3.378906 -11.101562 1.332031 -5.65625 1.46875 -4.78125 C 1.601562 -3.90625 2.164062 -3.6875 3.15625 -4.125 C 4.15625 -4.570312 4.925781 -5.023438 5.46875 -5.484375 C 6.007812 -5.941406 6.347656 -6.242188 6.484375 -6.390625 Z M 6.484375 -6.390625 "/></g></g></g><g fill="#232526" fill-opacity="1"><g transform="translate(161.161545, 210.569151)"><g><path d="M 9.71875 -6.8125 C 9.925781 -6.695312 9.941406 -6.410156 9.765625 -5.953125 C 9.503906 -5.609375 9.226562 -5.289062 8.9375 -5 C 8.644531 -4.707031 8.320312 -4.441406 7.96875 -4.203125 C 7.945312 -4.203125 7.9375 -4.195312 7.9375 -4.1875 C 7.695312 -4.019531 7.445312 -3.878906 7.1875 -3.765625 C 5.0625 -2.992188 3.972656 -3.445312 3.921875 -5.125 C 3.054688 -4.375 2.476562 -3.910156 2.1875 -3.734375 C 1.476562 -3.316406 0.710938 -3.128906 -0.109375 -3.171875 C -0.710938 -3.210938 -1.125 -3.398438 -1.34375 -3.734375 C -1.5625 -4.066406 -1.539062 -4.519531 -1.28125 -5.09375 C -0.894531 -5.988281 -0.335938 -6.789062 0.390625 -7.5 C 1.234375 -8.289062 2.175781 -8.921875 3.21875 -9.390625 C 3.769531 -9.671875 4.347656 -9.78125 4.953125 -9.71875 C 5.566406 -9.675781 5.9375 -9.332031 6.0625 -8.6875 C 6.113281 -8.488281 6.0625 -8.3125 5.90625 -8.15625 C 5.707031 -7.976562 5.476562 -7.9375 5.21875 -8.03125 C 5.207031 -8.03125 5.1875 -8.035156 5.15625 -8.046875 C 5.125 -8.054688 5.097656 -8.070312 5.078125 -8.09375 C 4.816406 -8.445312 4.554688 -8.59375 4.296875 -8.53125 C 4.035156 -8.476562 3.753906 -8.363281 3.453125 -8.1875 C 2.078125 -7.382812 1.054688 -6.265625 0.390625 -4.828125 C 0.347656 -4.765625 0.320312 -4.691406 0.3125 -4.609375 C 0.3125 -4.535156 0.335938 -4.476562 0.390625 -4.4375 C 0.546875 -4.382812 0.722656 -4.394531 0.921875 -4.46875 C 1.117188 -4.539062 1.316406 -4.648438 1.515625 -4.796875 C 1.710938 -4.953125 1.878906 -5.078125 2.015625 -5.171875 C 2.023438 -5.203125 2.03125 -5.21875 2.03125 -5.21875 C 2.6875 -5.757812 3.328125 -6.316406 3.953125 -6.890625 C 4.234375 -7.179688 4.578125 -7.34375 4.984375 -7.375 C 5.578125 -7.375 5.820312 -7.113281 5.71875 -6.59375 C 5.664062 -6.394531 5.609375 -6.195312 5.546875 -6 C 5.316406 -5.15625 5.304688 -4.65625 5.515625 -4.5 C 5.734375 -4.351562 6.0625 -4.351562 6.5 -4.5 C 6.945312 -4.65625 7.390625 -4.9375 7.828125 -5.34375 C 8.273438 -5.757812 8.648438 -6.140625 8.953125 -6.484375 C 9.253906 -6.828125 9.507812 -6.9375 9.71875 -6.8125 Z M 9.71875 -6.8125 "/></g></g></g><g fill="#232526" fill-opacity="1"><g transform="translate(174.158061, 210.569151)"><g/></g></g><g fill="#232526" fill-opacity="1"><g transform="translate(188.400336, 210.569151)"><g><path d="M 37.28125 3.3125 C 37.445312 3.457031 37.519531 3.609375 37.5 3.765625 C 37.476562 3.929688 37.425781 4.082031 37.34375 4.21875 C 37.34375 4.25 37.34375 4.265625 37.34375 4.265625 C 36.78125 5.609375 35.921875 6.625 34.765625 7.3125 C 33.617188 8 32.238281 8.285156 30.625 8.171875 C 29.070312 8.015625 27.851562 7.46875 26.96875 6.53125 C 26.082031 5.601562 25.570312 4.351562 25.4375 2.78125 C 25.375 2.019531 25.398438 1.257812 25.515625 0.5 C 25.640625 -0.257812 25.796875 -1.019531 25.984375 -1.78125 C 26.097656 -2.25 26.210938 -2.722656 26.328125 -3.203125 C 26.535156 -3.984375 26.722656 -4.78125 26.890625 -5.59375 C 27.117188 -6.84375 26.984375 -7.710938 26.484375 -8.203125 C 25.984375 -8.703125 25.273438 -8.96875 24.359375 -9 C 23.441406 -9.03125 22.515625 -8.984375 21.578125 -8.859375 C 21.046875 -8.804688 20.554688 -8.769531 20.109375 -8.75 C 19.929688 -8.75 19.789062 -8.695312 19.6875 -8.59375 C 19.59375 -8.5 19.503906 -8.390625 19.421875 -8.265625 C 18.953125 -7.421875 18.492188 -6.566406 18.046875 -5.703125 C 13.878906 2.148438 9.359375 9.800781 4.484375 17.25 C 3.734375 18.382812 2.957031 19.507812 2.15625 20.625 C 1.976562 20.882812 1.773438 21.117188 1.546875 21.328125 C 1.328125 21.546875 1.054688 21.703125 0.734375 21.796875 C 0.148438 21.960938 -0.3125 21.921875 -0.65625 21.671875 C -1 21.429688 -1.160156 21 -1.140625 20.375 C -1.097656 19.65625 -0.988281 18.925781 -0.8125 18.1875 C 0.25 13.75 1.617188 9.945312 3.296875 6.78125 C 4.972656 3.625 7 0.769531 9.375 -1.78125 C 11.75 -4.332031 14.492188 -6.910156 17.609375 -9.515625 C 18.097656 -9.898438 18.488281 -10.378906 18.78125 -10.953125 C 19.195312 -11.742188 19.609375 -12.53125 20.015625 -13.3125 C 21.535156 -16.238281 23.03125 -19.171875 24.5 -22.109375 C 25.976562 -25.046875 27.375 -28.019531 28.6875 -31.03125 C 29.976562 -34.03125 30.644531 -36.269531 30.6875 -37.75 C 30.726562 -39.238281 30.039062 -40.023438 28.625 -40.109375 C 27.207031 -40.203125 24.976562 -39.640625 21.9375 -38.421875 C 18.945312 -37.222656 16.019531 -35.882812 13.15625 -34.40625 C 10.300781 -32.9375 7.488281 -31.367188 4.71875 -29.703125 C 3.675781 -29.097656 2.394531 -28.289062 0.875 -27.28125 C -0.644531 -26.28125 -2.144531 -25.203125 -3.625 -24.046875 C -5.113281 -22.890625 -6.335938 -21.753906 -7.296875 -20.640625 C -8.003906 -19.804688 -8.179688 -19.234375 -7.828125 -18.921875 C -7.472656 -18.617188 -6.765625 -18.445312 -5.703125 -18.40625 C -5.191406 -18.382812 -4.320312 -18.378906 -3.09375 -18.390625 C -1.875 -18.398438 -0.507812 -18.460938 1 -18.578125 C 1.851562 -18.640625 2.679688 -18.703125 3.484375 -18.765625 C 4.703125 -18.878906 5.742188 -18.957031 6.609375 -19 C 7.472656 -19.039062 7.984375 -18.988281 8.140625 -18.84375 C 8.191406 -18.695312 7.59375 -18.53125 6.34375 -18.34375 C 5.09375 -18.15625 3.546875 -17.984375 1.703125 -17.828125 C -0.140625 -17.671875 -1.925781 -17.578125 -3.65625 -17.546875 C -5.382812 -17.515625 -6.6875 -17.578125 -7.5625 -17.734375 C -9.125 -18.066406 -9.832031 -18.671875 -9.6875 -19.546875 C -9.550781 -20.421875 -8.800781 -21.476562 -7.4375 -22.71875 C -6.082031 -23.957031 -4.351562 -25.269531 -2.25 -26.65625 C -0.15625 -28.050781 2.09375 -29.441406 4.5 -30.828125 C 6.90625 -32.222656 9.234375 -33.515625 11.484375 -34.703125 C 13.734375 -35.890625 15.671875 -36.875 17.296875 -37.65625 C 18.929688 -38.445312 20.035156 -38.957031 20.609375 -39.1875 C 22.941406 -40.132812 25 -40.773438 26.78125 -41.109375 C 28.5625 -41.441406 29.953125 -41.351562 30.953125 -40.84375 C 31.960938 -40.332031 32.46875 -39.289062 32.46875 -37.71875 C 32.476562 -36.144531 31.882812 -33.925781 30.6875 -31.0625 C 29.726562 -28.78125 28.703125 -26.519531 27.609375 -24.28125 C 26.523438 -22.050781 25.421875 -19.832031 24.296875 -17.625 C 23.859375 -16.769531 23.414062 -15.890625 22.96875 -14.984375 C 22.71875 -14.492188 22.441406 -13.972656 22.140625 -13.421875 C 22.472656 -13.503906 22.738281 -13.609375 22.9375 -13.734375 C 23.144531 -13.867188 23.332031 -14.003906 23.5 -14.140625 C 23.582031 -14.203125 23.671875 -14.257812 23.765625 -14.3125 C 27.691406 -17.1875 31.984375 -20.082031 36.640625 -23 C 41.296875 -25.914062 46.1875 -28.632812 51.3125 -31.15625 C 56.445312 -33.675781 61.695312 -35.769531 67.0625 -37.4375 C 72.425781 -39.113281 77.78125 -40.144531 83.125 -40.53125 C 88.46875 -40.925781 93.6875 -40.460938 98.78125 -39.140625 C 98.832031 -39.117188 98.882812 -39.066406 98.9375 -38.984375 C 99 -38.898438 99.03125 -38.820312 99.03125 -38.75 C 99.03125 -38.632812 98.988281 -38.539062 98.90625 -38.46875 C 98.820312 -38.40625 98.707031 -38.375 98.5625 -38.375 C 98.46875 -38.34375 98.359375 -38.347656 98.234375 -38.390625 C 93.992188 -39.492188 89.597656 -39.914062 85.046875 -39.65625 C 80.492188 -39.40625 75.878906 -38.640625 71.203125 -37.359375 C 66.535156 -36.085938 61.90625 -34.445312 57.3125 -32.4375 C 52.726562 -30.4375 48.285156 -28.226562 43.984375 -25.8125 C 39.691406 -23.394531 35.65625 -20.914062 31.875 -18.375 C 28.09375 -15.84375 24.671875 -13.40625 21.609375 -11.0625 C 21.585938 -11.050781 21.578125 -11.046875 21.578125 -11.046875 C 21.335938 -10.890625 21.109375 -10.710938 20.890625 -10.515625 C 20.679688 -10.316406 20.582031 -10.148438 20.59375 -10.015625 C 20.613281 -9.878906 20.863281 -9.816406 21.34375 -9.828125 C 21.488281 -9.828125 21.625 -9.828125 21.75 -9.828125 C 22.625 -9.910156 23.535156 -9.9375 24.484375 -9.90625 C 25.429688 -9.875 26.300781 -9.710938 27.09375 -9.421875 C 28.226562 -8.941406 28.796875 -8.097656 28.796875 -6.890625 C 28.785156 -6.316406 28.71875 -5.757812 28.59375 -5.21875 C 28.394531 -4.300781 28.1875 -3.390625 27.96875 -2.484375 C 27.757812 -1.503906 27.546875 -0.515625 27.328125 0.484375 C 27.066406 1.660156 27.109375 2.835938 27.453125 4.015625 C 27.785156 5.035156 28.300781 5.828125 29 6.390625 C 29.707031 6.953125 30.515625 7.242188 31.421875 7.265625 C 32.328125 7.296875 33.234375 7.019531 34.140625 6.4375 C 34.804688 5.988281 35.34375 5.410156 35.75 4.703125 C 35.832031 4.546875 35.914062 4.382812 36 4.21875 C 36.050781 4.070312 36.117188 3.925781 36.203125 3.78125 C 36.359375 3.53125 36.539062 3.359375 36.75 3.265625 C 36.957031 3.179688 37.132812 3.195312 37.28125 3.3125 Z M 15.5625 -4.9375 C 15.582031 -4.976562 15.613281 -5.03125 15.65625 -5.09375 C 15.726562 -5.226562 15.820312 -5.390625 15.9375 -5.578125 C 16.050781 -5.773438 16.132812 -5.960938 16.1875 -6.140625 C 16.25 -6.328125 16.253906 -6.4375 16.203125 -6.46875 C 16.148438 -6.507812 16.003906 -6.4375 15.765625 -6.25 C 11.765625 -3.101562 8.617188 0.425781 6.328125 4.34375 C 4.035156 8.269531 2.316406 12.769531 1.171875 17.84375 C 1.078125 18.289062 1.066406 18.535156 1.140625 18.578125 C 1.222656 18.628906 1.351562 18.5625 1.53125 18.375 C 1.71875 18.195312 1.890625 17.984375 2.046875 17.734375 C 2.210938 17.492188 2.335938 17.328125 2.421875 17.234375 C 4.765625 13.609375 7.035156 9.953125 9.234375 6.265625 C 11.429688 2.585938 13.539062 -1.144531 15.5625 -4.9375 Z M 15.5625 -4.9375 "/></g></g></g><g fill="#232526" fill-opacity="1"><g transform="translate(225.494995, 210.569151)"><g><path d="M 6.421875 -8.21875 C 6.347656 -7.601562 6.0625 -7.203125 5.5625 -7.015625 C 5.0625 -6.828125 4.894531 -7.070312 5.0625 -7.75 C 5.238281 -8.4375 4.929688 -8.609375 4.140625 -8.265625 C 3.359375 -7.929688 2.710938 -7.507812 2.203125 -7 C 1.421875 -6.195312 0.726562 -5.332031 0.125 -4.40625 C 0.0625 -4.320312 0.0078125 -4.253906 -0.03125 -4.203125 C -0.207031 -3.941406 -0.382812 -3.695312 -0.5625 -3.46875 C -0.675781 -3.3125 -0.8125 -3.210938 -0.96875 -3.171875 C -1.125 -3.128906 -1.285156 -3.117188 -1.453125 -3.140625 C -1.597656 -3.160156 -1.710938 -3.21875 -1.796875 -3.3125 C -1.878906 -3.414062 -1.890625 -3.535156 -1.828125 -3.671875 C -1.722656 -3.910156 -1.601562 -4.15625 -1.46875 -4.40625 C -0.664062 -5.894531 0.148438 -7.390625 0.984375 -8.890625 C 0.992188 -8.910156 1 -8.929688 1 -8.953125 C 1.113281 -9.179688 1.253906 -9.394531 1.421875 -9.59375 C 1.597656 -9.789062 1.800781 -9.867188 2.03125 -9.828125 C 2.269531 -9.796875 2.425781 -9.660156 2.5 -9.421875 C 2.601562 -9.109375 2.6875 -8.929688 2.75 -8.890625 C 2.820312 -8.847656 2.984375 -8.875 3.234375 -8.96875 C 3.773438 -9.164062 4.300781 -9.304688 4.8125 -9.390625 C 5.320312 -9.472656 5.738281 -9.453125 6.0625 -9.328125 C 6.382812 -9.210938 6.503906 -8.84375 6.421875 -8.21875 Z M 6.421875 -8.21875 "/></g></g></g><g fill="#232526" fill-opacity="1"><g transform="translate(236.30807, 210.569151)"><g><path d="M 9.71875 -6.8125 C 9.925781 -6.695312 9.941406 -6.410156 9.765625 -5.953125 C 9.503906 -5.609375 9.226562 -5.289062 8.9375 -5 C 8.644531 -4.707031 8.320312 -4.441406 7.96875 -4.203125 C 7.945312 -4.203125 7.9375 -4.195312 7.9375 -4.1875 C 7.695312 -4.019531 7.445312 -3.878906 7.1875 -3.765625 C 5.0625 -2.992188 3.972656 -3.445312 3.921875 -5.125 C 3.054688 -4.375 2.476562 -3.910156 2.1875 -3.734375 C 1.476562 -3.316406 0.710938 -3.128906 -0.109375 -3.171875 C -0.710938 -3.210938 -1.125 -3.398438 -1.34375 -3.734375 C -1.5625 -4.066406 -1.539062 -4.519531 -1.28125 -5.09375 C -0.894531 -5.988281 -0.335938 -6.789062 0.390625 -7.5 C 1.234375 -8.289062 2.175781 -8.921875 3.21875 -9.390625 C 3.769531 -9.671875 4.347656 -9.78125 4.953125 -9.71875 C 5.566406 -9.675781 5.9375 -9.332031 6.0625 -8.6875 C 6.113281 -8.488281 6.0625 -8.3125 5.90625 -8.15625 C 5.707031 -7.976562 5.476562 -7.9375 5.21875 -8.03125 C 5.207031 -8.03125 5.1875 -8.035156 5.15625 -8.046875 C 5.125 -8.054688 5.097656 -8.070312 5.078125 -8.09375 C 4.816406 -8.445312 4.554688 -8.59375 4.296875 -8.53125 C 4.035156 -8.476562 3.753906 -8.363281 3.453125 -8.1875 C 2.078125 -7.382812 1.054688 -6.265625 0.390625 -4.828125 C 0.347656 -4.765625 0.320312 -4.691406 0.3125 -4.609375 C 0.3125 -4.535156 0.335938 -4.476562 0.390625 -4.4375 C 0.546875 -4.382812 0.722656 -4.394531 0.921875 -4.46875 C 1.117188 -4.539062 1.316406 -4.648438 1.515625 -4.796875 C 1.710938 -4.953125 1.878906 -5.078125 2.015625 -5.171875 C 2.023438 -5.203125 2.03125 -5.21875 2.03125 -5.21875 C 2.6875 -5.757812 3.328125 -6.316406 3.953125 -6.890625 C 4.234375 -7.179688 4.578125 -7.34375 4.984375 -7.375 C 5.578125 -7.375 5.820312 -7.113281 5.71875 -6.59375 C 5.664062 -6.394531 5.609375 -6.195312 5.546875 -6 C 5.316406 -5.15625 5.304688 -4.65625 5.515625 -4.5 C 5.734375 -4.351562 6.0625 -4.351562 6.5 -4.5 C 6.945312 -4.65625 7.390625 -4.9375 7.828125 -5.34375 C 8.273438 -5.757812 8.648438 -6.140625 8.953125 -6.484375 C 9.253906 -6.828125 9.507812 -6.9375 9.71875 -6.8125 Z M 9.71875 -6.8125 "/></g></g></g><g fill="#232526" fill-opacity="1"><g transform="translate(249.304587, 210.569151)"><g><path d="M 0.328125 -2.375 C -0.515625 -2.375 -0.9375 -2.816406 -0.9375 -3.703125 C -0.9375 -4.773438 -0.234375 -6.679688 1.171875 -9.421875 C 1.222656 -9.535156 1.316406 -9.59375 1.453125 -9.59375 C 2.015625 -9.59375 2.296875 -9.367188 2.296875 -8.921875 C 2.296875 -8.765625 2.25 -8.566406 2.15625 -8.328125 C 2.125 -8.265625 1.65625 -7.085938 0.75 -4.796875 C 0.601562 -4.421875 0.53125 -4.144531 0.53125 -3.96875 C 0.53125 -3.769531 0.617188 -3.671875 0.796875 -3.671875 C 1.453125 -3.671875 3.164062 -5.289062 5.9375 -8.53125 C 6.289062 -8.96875 6.644531 -9.1875 7 -9.1875 C 7.5 -9.1875 7.75 -9 7.75 -8.625 C 7.75 -8.476562 7.59375 -7.9375 7.28125 -7 C 6.851562 -5.726562 6.640625 -4.992188 6.640625 -4.796875 C 6.640625 -4.503906 6.738281 -4.359375 6.9375 -4.359375 C 7.425781 -4.359375 8.859375 -5.234375 11.234375 -6.984375 C 11.367188 -7.097656 11.488281 -7.15625 11.59375 -7.15625 C 11.8125 -7.15625 11.921875 -6.96875 11.921875 -6.59375 C 11.921875 -6.488281 11.890625 -6.40625 11.828125 -6.34375 C 10.566406 -5.269531 9.492188 -4.453125 8.609375 -3.890625 C 7.804688 -3.367188 7.09375 -3.109375 6.46875 -3.109375 L 6.28125 -3.109375 C 5.363281 -3.304688 4.90625 -4.023438 4.90625 -5.265625 C 3.925781 -4.398438 3.109375 -3.703125 2.453125 -3.171875 C 1.804688 -2.640625 1.097656 -2.375 0.328125 -2.375 Z M 0.328125 -2.375 "/></g></g></g><g fill="#232526" fill-opacity="1"><g transform="translate(264.430952, 210.569151)"><g><path d="M 6.484375 -6.796875 C 5.078125 -6.265625 4.0625 -5.832031 3.4375 -5.5 C 2.976562 -5.28125 2.710938 -5.097656 2.640625 -4.953125 C 2.578125 -4.804688 2.628906 -4.535156 2.796875 -4.140625 C 2.796875 -4.117188 2.8125 -4.09375 2.84375 -4.0625 C 3.039062 -3.582031 3.15625 -3.085938 3.1875 -2.578125 C 3.25 -1.554688 2.375 -0.835938 0.5625 -0.421875 C -1.238281 -0.015625 -2.445312 -0.00390625 -3.0625 -0.390625 C -3.675781 -0.773438 -3.863281 -1.257812 -3.625 -1.84375 C -3.382812 -2.4375 -2.769531 -3.035156 -1.78125 -3.640625 C -0.789062 -4.253906 -0.128906 -4.691406 0.203125 -4.953125 C 0.535156 -5.222656 0.640625 -5.523438 0.515625 -5.859375 C 0.460938 -5.972656 0.410156 -6.085938 0.359375 -6.203125 C 0.242188 -6.484375 0.125 -6.769531 0 -7.0625 C -0.226562 -7.59375 -0.328125 -8.117188 -0.296875 -8.640625 C -0.265625 -9.160156 -0.078125 -9.597656 0.265625 -9.953125 C 0.617188 -10.304688 1.171875 -10.492188 1.921875 -10.515625 C 2.335938 -10.535156 2.707031 -10.476562 3.03125 -10.34375 C 3.363281 -10.21875 3.628906 -9.976562 3.828125 -9.625 C 3.992188 -9.382812 3.945312 -9.164062 3.6875 -8.96875 C 3.519531 -8.84375 3.335938 -8.828125 3.140625 -8.921875 C 3.015625 -8.972656 2.890625 -9.050781 2.765625 -9.15625 C 2.765625 -9.175781 2.765625 -9.1875 2.765625 -9.1875 C 2.710938 -9.226562 2.664062 -9.265625 2.625 -9.296875 C 2.570312 -9.378906 2.515625 -9.441406 2.453125 -9.484375 C 2.222656 -9.648438 1.988281 -9.695312 1.75 -9.625 C 1.507812 -9.5625 1.332031 -9.382812 1.21875 -9.09375 C 1.132812 -8.863281 1.09375 -8.628906 1.09375 -8.390625 C 1.113281 -8.085938 1.179688 -7.800781 1.296875 -7.53125 C 1.378906 -7.363281 1.453125 -7.207031 1.515625 -7.0625 C 1.660156 -6.664062 1.78125 -6.394531 1.875 -6.25 C 1.976562 -6.101562 2.097656 -6.039062 2.234375 -6.0625 C 2.378906 -6.082031 3.648438 -6.535156 6.046875 -7.421875 C 6.554688 -7.585938 6.703125 -7.378906 6.484375 -6.796875 Z M 0.6875 -1.671875 C 1.3125 -1.890625 1.570312 -2.3125 1.46875 -2.9375 C 1.46875 -2.976562 1.460938 -3.023438 1.453125 -3.078125 C 1.410156 -3.421875 1.335938 -3.679688 1.234375 -3.859375 C 1.128906 -4.046875 0.890625 -4.039062 0.515625 -3.84375 C -0.421875 -3.3125 -1.28125 -2.695312 -2.0625 -2 C -2.113281 -1.9375 -2.160156 -1.878906 -2.203125 -1.828125 C -2.203125 -1.828125 -2.210938 -1.8125 -2.234375 -1.78125 C -2.285156 -1.707031 -2.289062 -1.625 -2.25 -1.53125 C -2.21875 -1.445312 -2.140625 -1.40625 -2.015625 -1.40625 C -1.097656 -1.257812 -0.195312 -1.347656 0.6875 -1.671875 Z M 0.6875 -1.671875 "/></g></g></g><g fill="#232526" fill-opacity="1"><g transform="translate(274.480489, 210.569151)"><g><path d="M 6.484375 -6.796875 C 5.078125 -6.265625 4.0625 -5.832031 3.4375 -5.5 C 2.976562 -5.28125 2.710938 -5.097656 2.640625 -4.953125 C 2.578125 -4.804688 2.628906 -4.535156 2.796875 -4.140625 C 2.796875 -4.117188 2.8125 -4.09375 2.84375 -4.0625 C 3.039062 -3.582031 3.15625 -3.085938 3.1875 -2.578125 C 3.25 -1.554688 2.375 -0.835938 0.5625 -0.421875 C -1.238281 -0.015625 -2.445312 -0.00390625 -3.0625 -0.390625 C -3.675781 -0.773438 -3.863281 -1.257812 -3.625 -1.84375 C -3.382812 -2.4375 -2.769531 -3.035156 -1.78125 -3.640625 C -0.789062 -4.253906 -0.128906 -4.691406 0.203125 -4.953125 C 0.535156 -5.222656 0.640625 -5.523438 0.515625 -5.859375 C 0.460938 -5.972656 0.410156 -6.085938 0.359375 -6.203125 C 0.242188 -6.484375 0.125 -6.769531 0 -7.0625 C -0.226562 -7.59375 -0.328125 -8.117188 -0.296875 -8.640625 C -0.265625 -9.160156 -0.078125 -9.597656 0.265625 -9.953125 C 0.617188 -10.304688 1.171875 -10.492188 1.921875 -10.515625 C 2.335938 -10.535156 2.707031 -10.476562 3.03125 -10.34375 C 3.363281 -10.21875 3.628906 -9.976562 3.828125 -9.625 C 3.992188 -9.382812 3.945312 -9.164062 3.6875 -8.96875 C 3.519531 -8.84375 3.335938 -8.828125 3.140625 -8.921875 C 3.015625 -8.972656 2.890625 -9.050781 2.765625 -9.15625 C 2.765625 -9.175781 2.765625 -9.1875 2.765625 -9.1875 C 2.710938 -9.226562 2.664062 -9.265625 2.625 -9.296875 C 2.570312 -9.378906 2.515625 -9.441406 2.453125 -9.484375 C 2.222656 -9.648438 1.988281 -9.695312 1.75 -9.625 C 1.507812 -9.5625 1.332031 -9.382812 1.21875 -9.09375 C 1.132812 -8.863281 1.09375 -8.628906 1.09375 -8.390625 C 1.113281 -8.085938 1.179688 -7.800781 1.296875 -7.53125 C 1.378906 -7.363281 1.453125 -7.207031 1.515625 -7.0625 C 1.660156 -6.664062 1.78125 -6.394531 1.875 -6.25 C 1.976562 -6.101562 2.097656 -6.039062 2.234375 -6.0625 C 2.378906 -6.082031 3.648438 -6.535156 6.046875 -7.421875 C 6.554688 -7.585938 6.703125 -7.378906 6.484375 -6.796875 Z M 0.6875 -1.671875 C 1.3125 -1.890625 1.570312 -2.3125 1.46875 -2.9375 C 1.46875 -2.976562 1.460938 -3.023438 1.453125 -3.078125 C 1.410156 -3.421875 1.335938 -3.679688 1.234375 -3.859375 C 1.128906 -4.046875 0.890625 -4.039062 0.515625 -3.84375 C -0.421875 -3.3125 -1.28125 -2.695312 -2.0625 -2 C -2.113281 -1.9375 -2.160156 -1.878906 -2.203125 -1.828125 C -2.203125 -1.828125 -2.210938 -1.8125 -2.234375 -1.78125 C -2.285156 -1.707031 -2.289062 -1.625 -2.25 -1.53125 C -2.21875 -1.445312 -2.140625 -1.40625 -2.015625 -1.40625 C -1.097656 -1.257812 -0.195312 -1.347656 0.6875 -1.671875 Z M 0.6875 -1.671875 "/></g></g></g><g fill="#232526" fill-opacity="1"><g transform="translate(284.530026, 210.569151)"><g/></g></g><g fill="#232526" fill-opacity="1"><g transform="translate(298.772289, 210.569151)"><g><path d="M 6.515625 -5.828125 L 5.421875 -5.859375 C 4.328125 -5.890625 3.128906 -5.976562 1.828125 -6.125 C 1.804688 -6.125 1.785156 -6.140625 1.765625 -6.171875 C 1.734375 -6.171875 1.703125 -6.1875 1.671875 -6.21875 C 1.648438 -6.25 1.648438 -6.316406 1.671875 -6.421875 C 1.773438 -6.828125 1.921875 -7.039062 2.109375 -7.0625 C 3.160156 -7.207031 4.195312 -7.285156 5.21875 -7.296875 L 5.84375 -7.328125 L 9.96875 -7.328125 C 10.195312 -7.328125 10.421875 -7.3125 10.640625 -7.28125 C 10.796875 -7.226562 10.816406 -7 10.703125 -6.59375 C 10.578125 -6.175781 10.429688 -5.945312 10.265625 -5.90625 C 10.179688 -5.882812 10.097656 -5.875 10.015625 -5.875 L 9.375 -5.875 C 8.46875 -5.84375 7.515625 -5.828125 6.515625 -5.828125 Z M 6.515625 -5.828125 "/></g></g></g><g fill="#ff8210" fill-opacity="1"><g transform="translate(92.811892, 262.376234)"><g><path d="M 6.722656 0.351562 C 9.972656 0.351562 12.148438 -1 12.148438 -3 C 12.148438 -4.675781 10.808594 -5.574219 7.707031 -6 L 5.265625 -6.339844 C 3.632812 -6.558594 2.941406 -6.972656 2.941406 -7.675781 C 2.941406 -8.632812 4.234375 -9.296875 6.042969 -9.296875 C 7.855469 -9.296875 9.515625 -8.558594 10.324219 -7.515625 L 11.28125 -8.707031 C 10.355469 -9.925781 8.339844 -10.78125 6.03125 -10.78125 C 3.042969 -10.78125 0.925781 -9.558594 0.925781 -7.546875 C 0.925781 -5.925781 2.089844 -5.101562 4.808594 -4.75 L 7.28125 -4.367188 C 9.28125 -4.089844 10.132812 -3.601562 10.132812 -2.824219 C 10.132812 -1.867188 8.808594 -1.160156 6.824219 -1.160156 C 4.398438 -1.160156 2.160156 -2.191406 1.398438 -3.675781 L 0.292969 -2.5 C 1.28125 -0.824219 3.824219 0.351562 6.722656 0.351562 Z M 6.722656 0.351562 "/></g></g></g><g fill="#ff8210" fill-opacity="1"><g transform="translate(108.519188, 262.376234)"><g><path d="M 7.808594 0.367188 C 12.132812 0.367188 15.074219 -1.898438 15.074219 -5.207031 C 15.074219 -8.5 12.132812 -10.796875 7.808594 -10.796875 C 3.5 -10.796875 0.558594 -8.5 0.558594 -5.207031 C 0.558594 -1.898438 3.5 0.367188 7.808594 0.367188 Z M 7.808594 -1.222656 C 4.734375 -1.222656 2.601562 -2.851562 2.601562 -5.207031 C 2.601562 -7.558594 4.734375 -9.191406 7.808594 -9.191406 C 10.882812 -9.191406 13.03125 -7.558594 13.03125 -5.207031 C 13.03125 -2.851562 10.882812 -1.222656 7.808594 -1.222656 Z M 7.808594 -1.222656 "/></g></g></g><g fill="#ff8210" fill-opacity="1"><g transform="translate(127.41792, 262.376234)"><g><path d="M 0.734375 0 L 2.78125 0 L 2.78125 -4.367188 L 9.855469 -4.367188 L 9.855469 -5.792969 L 2.78125 -5.792969 L 2.78125 -8.824219 L 10.722656 -8.824219 L 10.722656 -10.425781 L 0.734375 -10.425781 Z M 0.734375 0 "/></g></g></g><g fill="#ff8210" fill-opacity="1"><g transform="translate(141.639795, 262.376234)"><g><path d="M 4.765625 0 L 6.808594 0 L 6.808594 -8.824219 L 11.488281 -8.824219 L 11.488281 -10.425781 L 0.0898438 -10.425781 L 0.0898438 -8.824219 L 4.765625 -8.824219 Z M 4.765625 0 "/></g></g></g><g fill="#ff8210" fill-opacity="1"><g transform="translate(156.479366, 262.376234)"><g><path d="M 4.589844 0 L 7.074219 0 L 10.75 -8.675781 L 10.765625 -8.675781 L 14.429688 0 L 16.914062 0 L 21.503906 -10.425781 L 19.382812 -10.425781 L 15.648438 -1.734375 L 15.621094 -1.734375 L 12.046875 -10.425781 L 9.457031 -10.425781 L 5.898438 -1.734375 L 5.882812 -1.734375 L 2.117188 -10.425781 L -0.015625 -10.425781 Z M 4.589844 0 "/></g></g></g><g fill="#ff8210" fill-opacity="1"><g transform="translate(181.246227, 262.376234)"><g><path d="M 0.0585938 0 L 2.191406 0 L 3.382812 -2.28125 L 9.914062 -2.28125 L 11.105469 0 L 13.25 0 L 7.867188 -10.425781 L 5.484375 -10.425781 Z M 3.984375 -3.707031 L 6.648438 -8.941406 L 6.675781 -8.941406 L 9.324219 -3.707031 Z M 3.984375 -3.707031 "/></g></g></g><g fill="#ff8210" fill-opacity="1"><g transform="translate(197.821237, 262.376234)"><g><path d="M 11.632812 0.292969 C 12.441406 0.292969 13.191406 -0.101562 13.632812 -0.648438 L 13.015625 -1.617188 C 12.796875 -1.28125 12.472656 -1.042969 12.148438 -1.042969 C 11.75 -1.042969 11.546875 -1.324219 11.367188 -1.675781 L 10.632812 -3.164062 C 10.382812 -3.722656 10.046875 -4.148438 9.546875 -4.414062 L 9.546875 -4.425781 C 11.457031 -4.632812 12.632812 -5.75 12.632812 -7.308594 C 12.632812 -9.234375 11.117188 -10.425781 8.675781 -10.425781 L 0.734375 -10.425781 L 0.734375 0 L 2.78125 0 L 2.78125 -4.042969 L 7.03125 -4.042969 C 7.765625 -4.042969 8.382812 -3.589844 8.734375 -2.851562 L 9.53125 -1.160156 C 9.925781 -0.382812 10.53125 0.292969 11.632812 0.292969 Z M 2.78125 -5.457031 L 2.78125 -8.972656 L 8.25 -8.972656 C 9.675781 -8.972656 10.589844 -8.28125 10.589844 -7.191406 C 10.589844 -6.148438 9.675781 -5.457031 8.25 -5.457031 Z M 2.78125 -5.457031 "/></g></g></g><g fill="#ff8210" fill-opacity="1"><g transform="translate(214.719799, 262.376234)"><g><path d="M 0.734375 0 L 11.25 0 L 11.25 -1.484375 L 2.722656 -1.484375 L 2.722656 -4.675781 L 10.515625 -4.675781 L 10.515625 -6.042969 L 2.722656 -6.042969 L 2.722656 -8.925781 L 11.105469 -8.925781 L 11.105469 -10.425781 L 0.734375 -10.425781 Z M 0.734375 0 "/></g></g></g><g fill="#ff8210" fill-opacity="1"><g transform="translate(229.529963, 262.376234)"><g/></g></g><g fill="#ff8210" fill-opacity="1"><g transform="translate(237.045412, 262.376234)"><g><path d="M 0.734375 0 L 7.28125 0 C 11.222656 0 13.414062 -1.867188 13.414062 -5.207031 C 13.414062 -8.558594 11.222656 -10.425781 7.28125 -10.425781 L 0.734375 -10.425781 Z M 2.75 -1.542969 L 2.75 -8.855469 L 7.105469 -8.855469 C 9.867188 -8.855469 11.414062 -7.558594 11.414062 -5.207031 C 11.414062 -2.851562 9.867188 -1.542969 7.105469 -1.542969 Z M 2.75 -1.542969 "/></g></g></g><g fill="#ff8210" fill-opacity="1"><g transform="translate(254.28225, 262.376234)"><g><path d="M 0.734375 0 L 11.25 0 L 11.25 -1.484375 L 2.722656 -1.484375 L 2.722656 -4.675781 L 10.515625 -4.675781 L 10.515625 -6.042969 L 2.722656 -6.042969 L 2.722656 -8.925781 L 11.105469 -8.925781 L 11.105469 -10.425781 L 0.734375 -10.425781 Z M 0.734375 0 "/></g></g></g><g fill="#ff8210" fill-opacity="1"><g transform="translate(269.092414, 262.376234)"><g><path d="M 5.398438 0 L 7.675781 0 L 13.089844 -10.425781 L 10.898438 -10.425781 L 6.558594 -1.910156 L 6.53125 -1.910156 L 2.175781 -10.425781 L 0 -10.425781 Z M 5.398438 0 "/></g></g></g></svg>